{
  "accessors": [
    {
      "bufferView": 2,
      "componentType": 5126,
      "count": 37111,
      "max": [
        0.0381375253200531,
        0.03813778609037399,
        0.05681389942765236
      ],
      "min": [
        -0.038137588649988174,
        -0.038137953728437424,
        -0.21578066051006317
      ],
      "type": "VEC3"
    },
    {
      "bufferView": 2,
      "byteOffset": 445332,
      "componentType": 5126,
      "count": 37111,
      "max": [
        1.0,
        1.0,
        1.0
      ],
      "min": [
        -1.0,
        -1.0,
        -1.0
      ],
      "type": "VEC3"
    },
    {
      "bufferView": 1,
      "componentType": 5126,
      "count": 37111,
      "max": [
        0.9797742366790771,
        0.9876458644866943
      ],
      "min": [
        0.01235419325530529,
        0.01235419325530529
      ],
      "type": "VEC2"
    },
    {
      "bufferView": 1,
      "byteOffset": 296888,
      "componentType": 5126,
      "count": 37111,
      "max": [
        0.9797742366790771,
        0.9876458644866943
      ],
      "min": [
        0.01235419325530529,
        0.01235419325530529
      ],
      "type": "VEC2"
    },
    {
      "bufferView": 1,
      "byteOffset": 593776,
      "componentType": 5126,
      "count": 37111,
      "max": [
        0.9797742366790771,
        0.9876458644866943
      ],
      "min": [
        0.01235419325530529,
        0.01235419325530529
      ],
      "type": "VEC2"
    },
    {
      "bufferView": 1,
      "byteOffset": 890664,
      "componentType": 5126,
      "count": 37111,
      "max": [
        0.9797742366790771,
        0.9876458644866943
      ],
      "min": [
        0.01235419325530529,
        0.01235419325530529
      ],
      "type": "VEC2"
    },
    {
      "bufferView": 0,
      "componentType": 5125,
      "count": 146805,
      "type": "SCALAR"
    },
    {
      "bufferView": 2,
      "byteOffset": 890664,
      "componentType": 5126,
      "count": 144,
      "max": [
        0.011329523287713528,
        0.011330240406095982,
        0.11317000538110733
      ],
      "min": [
        -0.01132955215871334,
        -0.011330241337418556,
        -0.5474072098731995
      ],
      "type": "VEC3"
    },
    {
      "bufferView": 2,
      "byteOffset": 892392,
      "componentType": 5126,
      "count": 144,
      "max": [
        1.0,
        1.0,
        0.9845051169395447
      ],
      "min": [
        -1.0,
        -1.0,
        -1.0
      ],
      "type": "VEC3"
    },
    {
      "bufferView": 1,
      "byteOffset": 1187552,
      "componentType": 5126,
      "count": 144,
      "max": [
        0.13231916725635529,
        1.0
      ],
      "min": [
        0.0,
        0.0
      ],
      "type": "VEC2"
    },
    {
      "bufferView": 0,
      "byteOffset": 587220,
      "componentType": 5125,
      "count": 564,
      "type": "SCALAR"
    },
    {
      "bufferView": 2,
      "byteOffset": 894120,
      "componentType": 5126,
      "count": 160,
      "max": [
        0.006551889702677727,
        0.006552304141223431,
        0.11317000538110733
      ],
      "min": [
        -0.00655190646648407,
        -0.006552305072546005,
        -0.5474072098731995
      ],
      "type": "VEC3"
    },
    {
      "bufferView": 2,
      "byteOffset": 896040,
      "componentType": 5126,
      "count": 160,
      "max": [
        1.0,
        1.0,
        1.0
      ],
      "min": [
        -1.0,
        -1.0,
        -1.0
      ],
      "type": "VEC3"
    },
    {
      "bufferView": 1,
      "byteOffset": 1188704,
      "componentType": 5126,
      "count": 160,
      "max": [
        0.13231916725635529,
        1.0
      ],
      "min": [
        0.0,
        0.0
      ],
      "type": "VEC2"
    },
    {
      "bufferView": 0,
      "byteOffset": 589476,
      "componentType": 5125,
      "count": 564,
      "type": "SCALAR"
    }
  ],
  "asset": {
    "extras": {
      "author": "Nick Kotik (https://sketchfab.com/Nathanson)",
      "license": "CC-BY-4.0 (http://creativecommons.org/licenses/by/4.0/)",
      "source": "https://sketchfab.com/3d-models/lana-benikos-lightsaber-e8a6cb2c9fc24121a98baaf993aa64fd",
      "title": "Lana Beniko's lightsaber"
    },
    "generator": "Sketchfab-11.89.0",
    "version": "2.0"
  },
  "bufferViews": [
    {
      "buffer": 0,
      "byteLength": 591732,
      "name": "floatBufferViews",
      "target": 34963
    },
    {
      "buffer": 0,
      "byteLength": 1189984,
      "byteOffset": 591732,
      "byteStride": 8,
      "name": "floatBufferViews",
      "target": 34962
    },
    {
      "buffer": 0,
      "byteLength": 897960,
      "byteOffset": 1781716,
      "byteStride": 12,
      "name": "floatBufferViews",
      "target": 34962
    }
  ],
  "buffers": [
    {
      "byteLength": 2679676,
      "uri": "scene.bin"
    }
  ],
  "images": [
    {
      "uri": "textures/Lightsaber_baseColor.png"
    },
    {
      "uri": "textures/Lightsaber_metallicRoughness.png"
    },
    {
      "uri": "textures/Lightsaber_emissive.png"
    },
    {
      "uri": "textures/Laser.001_baseColor.png"
    },
    {
      "uri": "textures/Laser.001_metallicRoughness.png"
    }
  ],
  "materials": [
    {
      "doubleSided": true,
      "emissiveFactor": [
        1.0,
        1.0,
        1.0
      ],
      "emissiveTexture": {
        "index": 2
      },
      "name": "Lightsaber",
      "pbrMetallicRoughness": {
        "baseColorTexture": {
          "index": 0
        },
        "metallicRoughnessTexture": {
          "index": 1
        }
      }
    },
    {
      "doubleSided": true,
      "emissiveFactor": [
        1.0,
        0.04116355188858913,
        0.10996118508951237
      ],
      "name": "Laser",
      "pbrMetallicRoughness": {
        "metallicFactor": 0.0,
        "roughnessFactor": 0.8211145618000169
      }
    },
    {
      "doubleSided": true,
      "emissiveFactor": [
        1.0,
        0.08485380892699053,
        0.08485380892699053
      ],
      "name": "Laser.001",
      "pbrMetallicRoughness": {
        "baseColorTexture": {
          "index": 3
        },
        "metallicFactor": 0.0,
        "metallicRoughnessTexture": {
          "index": 4
        }
      }
    }
  ],
  "meshes": [
    {
      "name": "Lightsaber_Lightsaber_0",
      "primitives": [
        {
          "attributes": {
            "NORMAL": 1,
            "POSITION": 0,
            "TEXCOORD_0": 2,
            "TEXCOORD_1": 3,
            "TEXCOORD_2": 4,
            "TEXCOORD_3": 5
          },
          "indices": 6,
          "material": 0,
          "mode": 4
        }
      ]
    },
    {
      "name": "Laser_Laser_0",
      "primitives": [
        {
          "attributes": {
            "NORMAL": 8,
            "POSITION": 7,
            "TEXCOORD_0": 9
          },
          "indices": 10,
          "material": 1,
          "mode": 4
        }
      ]
    },
    {
      "name": "Laser.001_Laser.001_0",
      "primitives": [
        {
          "attributes": {
            "NORMAL": 12,
            "POSITION": 11,
            "TEXCOORD_0": 13
          },
          "indices": 14,
          "material": 2,
          "mode": 4
        }
      ]
    }
  ],
  "nodes": [
    {
      "children": [
        1
      ],
      "matrix": [
        1.0,
        8.112927229171508e-17,
        -2.71410876231094e-16,
        0.0,
        2.465190328815662e-32,
        0.9581114649772643,
        0.2863956093788149,
        0.0,
        2.832769343193999e-16,
        -0.2863956093788149,
        0.9581114649772643,
        0.0,
        -3.088472588785862e-09,
        0.04736898839473725,
        -0.0352804660797119,
        1.0
      ],
      "name": "Sketchfab_model"
    },
    {
      "children": [
        2
      ],
      "matrix": [
        0.009999999776482582,
        0.0,
        0.0,
        0.0,
        0.0,
        0.0,
        0.009999999776482582,
        0.0,
        0.0,
        -0.009999999776482582,
        0.0,
        0.0,
        0.0,
        0.0,
        0.0,
        1.0
      ],
      "name": "d2f2fe914d6d4a528fdf23400999cfc8.fbx"
    },
    {
      "children": [
        3,
        5,
        7,
        9
      ],
      "name": "RootNode"
    },
    {
      "children": [
        4
      ],
      "matrix": [
        -4.371138984105016e-06,
        99.99999999999973,
        -5.960463766996327e-06,
        0.0,
        1.6292068227841128e-05,
        -5.960463056453591e-06,
        -99.9999999999985,
        0.0,
        -99.99999999999858,
        -4.371139955550163e-06,
        -1.6292067961387602e-05,
        0.0,
        3.7879319190979004,
        3.6822855472564697,
        0.0,
        1.0
      ],
      "name": "Lightsaber"
    },
    {
      "mesh": 0,
      "name": "Lightsaber_Lightsaber_0"
    },
    {
      "children": [
        6
      ],
      "matrix": [
        -4.371138984105016e-06,
        99.99999999999973,
        -5.960463766996327e-06,
        0.0,
        1.6292068227841128e-05,
        -5.960463056453591e-06,
        -99.9999999999985,
        0.0,
        -99.99999999999858,
        -4.371139955550163e-06,
        -1.6292067961387602e-05,
        0.0,
        -54.02741241455078,
        3.6822915077209473,
        -1.1944655398110626e-06,
        1.0
      ],
      "name": "Laser"
    },
    {
      "mesh": 1,
      "name": "Laser_Laser_0"
    },
    {
      "children": [
        8
      ],
      "matrix": [
        -4.371138984105016e-06,
        99.99999999999973,
        -5.960463766996327e-06,
        0.0,
        1.6292068227841128e-05,
        -5.960463056453591e-06,
        -99.9999999999985,
        0.0,
        -99.99999999999858,
        -4.371139955550163e-06,
        -1.6292067961387602e-05,
        0.0,
        -54.02741241455078,
        3.6822915077209473,
        -1.1944655398110626e-06,
        1.0
      ],
      "name": "Laser.001"
    },
    {
      "mesh": 2,
      "name": "Laser.001_Laser.001_0"
    },
    {
      "children": [
        10
      ],
      "matrix": [
        -44.37694689552363,
        -22.699262467223246,
        86.69158014291806,
        0.0,
        -10.34277341609468,
        97.38964029060557,
        20.206025741123216,
        0.0,
        -89.01524367192631,
        0.0005036078583639525,
        -45.56628571404475,
        0.0,
        59.05335998535156,
        58.432281494140625,
        -115.36258697509766,
        1.0
      ],
      "name": "Camera"
    },
    {
      "name": "Object_10"
    }
  ],
  "samplers": [
    {
      "magFilter": 9729,
      "minFilter": 9987,
      "wrapS": 10497,
      "wrapT": 10497
    }
  ],
  "scene": 0,
  "scenes": [
    {
      "name": "Sketchfab_Scene",
      "nodes": [
        0
      ]
    }
  ],
  "textures": [
    {
      "sampler": 0,
      "source": 0
    },
    {
      "sampler": 0,
      "source": 1
    },
    {
      "sampler": 0,
      "source": 2
    },
    {
      "sampler": 0,
      "source": 3
    },
    {
      "sampler": 0,
      "source": 4
    }
  ]
}
